<?xml version="1.0" standalone="no"?>
<!DOCTYPE svg PUBLIC "-//W3C//DTD SVG 20010904//EN"
 "http://www.w3.org/TR/2001/REC-SVG-20010904/DTD/svg10.dtd">
<svg version="1.0" xmlns="http://www.w3.org/2000/svg"
 width="156.000000pt" height="34.000000pt" viewBox="0 0 156.000000 34.000000"
 preserveAspectRatio="xMidYMid meet">

<g transform="translate(0.000000,34.000000) scale(0.100000,-0.100000)"
fill="#000000" stroke="none">
<path d="M91 302 c-73 -37 -99 -117 -62 -190 65 -128 261 -83 263 60 1 57 -26
104 -74 129 -46 24 -83 24 -127 1z m79 -88 c0 -17 5 -24 20 -24 13 0 20 7 20
19 0 30 19 35 25 8 9 -36 2 -90 -12 -95 -8 -2 -13 5 -13 17 0 29 -38 29 -42
-1 -5 -32 -28 -35 -28 -4 0 19 -5 26 -20 26 -13 0 -20 -7 -20 -20 0 -11 -7
-20 -15 -20 -13 0 -15 11 -13 55 3 55 20 80 26 38 5 -32 42 -31 42 0 0 13 3
27 6 30 12 11 24 -3 24 -29z"/>
<path d="M660 217 c0 -73 17 -97 66 -97 39 0 54 16 54 57 0 37 -37 69 -70 60
-16 -4 -20 0 -20 19 0 15 -6 24 -15 24 -12 0 -15 -14 -15 -63z m88 -36 c4 -29
-15 -43 -40 -30 -21 11 -23 30 -6 47 19 19 43 10 46 -17z"/>
<path d="M1132 198 c3 -67 5 -73 26 -76 25 -4 29 10 7 28 -20 17 -19 47 3 60
16 10 16 10 0 20 -10 6 -18 18 -18 25 0 8 -5 15 -10 15 -7 0 -10 -27 -8 -72z"/>
<path d="M340 192 c0 -28 6 -54 13 -60 6 -5 38 -10 70 -10 71 0 89 14 85 71
-4 56 -26 60 -30 5 -2 -31 -8 -44 -20 -46 -13 -3 -17 6 -20 39 -4 58 -26 63
-30 7 -2 -31 -8 -44 -20 -46 -13 -3 -17 6 -20 39 -4 63 -28 63 -28 1z"/>
<path d="M540 220 c-24 -24 -25 -48 -4 -78 16 -23 57 -29 83 -13 22 14 5 28
-29 23 -18 -2 -30 0 -30 7 0 6 17 11 40 11 32 0 40 4 40 18 0 25 -31 52 -58
52 -12 0 -31 -9 -42 -20z m65 -20 c4 -6 -5 -10 -20 -10 -15 0 -24 4 -20 10 3
6 12 10 20 10 8 0 17 -4 20 -10z"/>
<path d="M815 223 c-20 -20 -20 -103 -1 -103 10 0 16 14 18 43 2 29 8 42 18
42 10 0 16 -13 18 -42 2 -29 8 -43 17 -43 9 0 15 14 17 43 2 29 8 42 18 42 10
0 16 -13 18 -42 2 -29 8 -43 18 -43 21 0 19 83 -3 102 -24 20 -119 21 -138 1z"/>
<path d="M1012 224 c-25 -17 -31 -71 -10 -92 21 -21 75 -15 92 10 22 31 20 51
-7 76 -28 26 -45 27 -75 6z m56 -26 c18 -18 15 -36 -7 -48 -28 -14 -55 13 -41
41 12 22 30 25 48 7z"/>
<path d="M1211 214 c-25 -32 -26 -42 -5 -72 23 -33 83 -27 103 10 14 25 14 29
-5 55 -29 39 -66 41 -93 7z m68 -18 c25 -30 -16 -67 -44 -40 -18 19 -19 26 -3
42 16 16 33 15 47 -2z"/>
<path d="M1426 224 c-23 -22 -20 -33 14 -52 35 -20 39 -34 8 -30 -13 2 -24 -1
-25 -7 -2 -5 14 -10 35 -10 33 0 37 3 37 25 0 16 -8 28 -22 35 -25 10 -31 27
-10 24 32 -4 40 1 27 16 -16 19 -44 19 -64 -1z"/>
<path d="M1350 215 c-6 -8 -14 -32 -17 -55 -5 -33 -3 -40 11 -40 10 0 16 8 16
24 0 35 10 56 26 56 8 0 14 7 14 15 0 19 -34 19 -50 0z"/>
</g>
</svg>
