<?xml version="1.0" standalone="no"?>
<!DOCTYPE svg PUBLIC "-//W3C//DTD SVG 20010904//EN"
 "http://www.w3.org/TR/2001/REC-SVG-20010904/DTD/svg10.dtd">
<svg version="1.0" xmlns="http://www.w3.org/2000/svg"
 width="361.000000pt" height="140.000000pt" viewBox="0 0 361.000000 140.000000"
 preserveAspectRatio="xMidYMid meet">

<g transform="translate(0.000000,140.000000) scale(0.100000,-0.100000)"
fill="#000000" stroke="none">
<path d="M1058 1213 c-10 -2 -18 -13 -18 -23 0 -25 -12 -32 -140 -79 -128 -48
-199 -77 -311 -127 -77 -34 -235 -64 -340 -64 -26 0 -51 -5 -55 -11 -4 -7 -9
-52 -11 -102 -4 -72 -9 -96 -26 -119 -19 -26 -22 -43 -22 -128 1 -97 1 -98 35
-138 54 -62 104 -76 301 -88 l109 -7 0 40 c0 98 67 211 151 254 145 73 314 21
387 -121 31 -59 33 -70 30 -142 l-3 -78 786 0 787 0 -10 45 c-19 89 28 210
104 268 88 67 205 80 302 33 104 -51 159 -143 159 -263 l-1 -73 37 5 c20 2 57
7 82 10 75 9 78 17 81 209 l3 168 -34 29 c-92 77 -560 169 -859 169 l-83 0
-97 59 c-53 32 -153 88 -222 124 -238 125 -326 141 -751 135 -237 -4 -300 -2
-314 9 -19 13 -27 14 -57 6z m516 -175 c9 -62 20 -128 23 -146 l6 -34 -249 7
c-137 4 -285 10 -329 15 -71 7 -82 11 -107 39 -37 42 -38 92 -2 120 75 59 311
104 570 110 l70 1 18 -112z m281 85 c147 -24 200 -45 343 -136 60 -38 62 -40
40 -51 -16 -8 -24 -22 -26 -44 l-3 -32 -236 2 -237 3 -42 125 c-24 69 -43 133
-43 142 -1 14 7 16 57 11 31 -2 98 -11 147 -20z"/>
<path d="M790 631 c-201 -61 -258 -328 -100 -464 135 -116 337 -74 423 87 16
31 22 58 22 116 0 65 -4 82 -30 129 -31 56 -88 106 -148 128 -36 13 -129 15
-167 4z m178 -93 c58 -35 86 -83 90 -153 8 -121 -69 -205 -187 -205 -87 0
-146 37 -182 115 -78 168 120 341 279 243z"/>
<path d="M794 516 c-19 -14 -19 -15 5 -40 33 -35 41 -33 41 14 0 43 -12 50
-46 26z"/>
<path d="M900 488 l0 -42 30 29 c29 27 30 31 14 42 -32 24 -44 16 -44 -29z"/>
<path d="M711 430 l-10 -30 46 0 47 0 -29 30 c-16 17 -32 30 -36 30 -4 0 -12
-13 -18 -30z"/>
<path d="M972 437 c-30 -32 -28 -37 18 -37 45 0 44 -1 30 34 -12 32 -20 32
-48 3z"/>
<path d="M860 430 c0 -5 5 -10 11 -10 5 0 7 5 4 10 -3 6 -8 10 -11 10 -2 0 -4
-4 -4 -10z"/>
<path d="M844 379 c-9 -15 12 -33 30 -26 9 4 16 13 16 22 0 17 -35 21 -46 4z"/>
<path d="M800 370 c0 -5 5 -10 10 -10 6 0 10 5 10 10 0 6 -4 10 -10 10 -5 0
-10 -4 -10 -10z"/>
<path d="M710 327 c0 -7 6 -21 13 -31 11 -16 15 -15 42 14 l29 30 -42 0 c-28
0 -42 -4 -42 -13z"/>
<path d="M950 335 c0 -2 12 -16 27 -29 l27 -26 13 23 c19 34 16 37 -27 37 -22
0 -40 -2 -40 -5z"/>
<path d="M797 262 l-27 -29 25 -11 c40 -18 45 -15 45 28 0 22 -4 40 -8 40 -5
0 -20 -13 -35 -28z"/>
<path d="M900 252 c0 -45 3 -48 38 -29 l22 13 -30 29 -30 29 0 -42z"/>
<path d="M2894 624 c-60 -21 -119 -76 -150 -140 -24 -48 -26 -63 -22 -128 8
-122 76 -210 187 -243 189 -55 364 88 348 283 -14 176 -193 288 -363 228z
m149 -65 c44 -12 102 -59 124 -103 23 -44 21 -135 -3 -176 -10 -18 -36 -47
-57 -64 -36 -29 -45 -31 -116 -31 -70 0 -81 3 -115 29 -99 75 -111 199 -28
288 36 37 95 67 137 68 11 0 37 -5 58 -11z"/>
<path d="M2916 517 c-16 -11 -15 -15 14 -42 l30 -29 0 42 c0 45 -12 53 -44 29z"/>
<path d="M3020 488 l0 -42 30 29 c29 27 30 31 14 42 -32 24 -44 16 -44 -29z"/>
<path d="M2839 436 c-15 -33 -10 -38 36 -34 l37 3 -31 29 -30 29 -12 -27z"/>
<path d="M3095 430 l-29 -30 42 0 c45 0 53 12 29 44 -11 16 -15 15 -42 -14z"/>
<path d="M2980 430 c0 -5 5 -10 11 -10 5 0 7 5 4 10 -3 6 -8 10 -11 10 -2 0
-4 -4 -4 -10z"/>
<path d="M2970 370 c0 -13 7 -20 20 -20 13 0 20 7 20 20 0 13 -7 20 -20 20
-13 0 -20 -7 -20 -20z"/>
<path d="M2925 370 c3 -5 8 -10 11 -10 2 0 4 5 4 10 0 6 -5 10 -11 10 -5 0 -7
-4 -4 -10z"/>
<path d="M2830 327 c0 -7 6 -21 13 -31 11 -16 15 -15 42 14 l29 30 -42 0 c-28
0 -42 -4 -42 -13z"/>
<path d="M3095 310 c27 -29 31 -30 42 -14 24 32 16 44 -29 44 l-42 0 29 -30z"/>
<path d="M2920 265 c-25 -27 -21 -38 18 -50 20 -6 22 -3 22 34 0 48 -8 50 -40
16z"/>
<path d="M3020 251 c0 -39 2 -42 23 -36 37 12 38 20 7 50 l-30 29 0 -43z"/>
</g>
</svg>
