<?xml version="1.0" standalone="no"?>
<!DOCTYPE svg PUBLIC "-//W3C//DTD SVG 20010904//EN"
 "http://www.w3.org/TR/2001/REC-SVG-20010904/DTD/svg10.dtd">
<svg version="1.0" xmlns="http://www.w3.org/2000/svg"
 width="225.000000pt" height="225.000000pt" viewBox="0 0 225.000000 225.000000"
 preserveAspectRatio="xMidYMid meet">

<g transform="translate(0.000000,225.000000) scale(0.100000,-0.100000)"
fill="#000000" stroke="none">
<path d="M1317 1520 c-45 -16 -63 -35 -34 -35 8 0 26 -9 42 -19 21 -14 24 -20
14 -26 -10 -7 -3 -18 28 -48 63 -62 66 -131 7 -193 -46 -48 -175 -101 -270
-110 -89 -9 -114 -18 -152 -53 -14 -13 -38 -21 -60 -22 -20 -1 -49 -5 -64 -9
-23 -6 -29 -3 -41 22 -22 42 -56 69 -112 88 -133 47 -275 -50 -275 -187 0
-128 80 -211 205 -212 74 -1 141 34 176 91 12 21 23 39 25 41 1 2 39 -7 85
-19 70 -18 102 -20 194 -16 236 11 299 49 345 211 34 115 34 115 55 83 16 -25
16 -29 3 -45 -32 -36 -51 -88 -51 -139 0 -178 207 -276 339 -161 122 107 89
296 -62 354 -31 12 -59 15 -94 11 -49 -6 -52 -5 -70 26 -11 18 -20 35 -20 40
0 4 29 7 65 7 64 0 65 0 65 28 0 39 -28 89 -101 182 -67 84 -63 82 -132 64
-19 -5 -25 0 -35 30 -7 20 -16 35 -20 35 -4 -1 -29 -9 -55 -19z m-626 -506
c16 -15 29 -33 29 -40 0 -6 -29 -22 -65 -35 -35 -12 -62 -25 -60 -29 3 -4 32
-13 65 -20 68 -14 74 -27 30 -63 -86 -73 -210 -15 -210 98 0 106 134 163 211
89z m1009 23 c36 -18 70 -74 70 -116 0 -49 -33 -99 -77 -117 -97 -41 -200 49
-172 151 5 19 14 37 19 40 5 3 30 -26 55 -65 36 -56 50 -71 67 -68 11 2 26 11
32 20 11 18 1 43 -50 126 l-26 42 28 0 c16 0 40 -6 54 -13z"/>
<path d="M1160 1396 c-63 -18 -87 -32 -147 -86 -31 -29 -65 -50 -85 -54 -48
-8 -106 8 -139 40 -16 15 -35 29 -42 29 -6 1 -70 5 -142 9 l-130 7 23 -24 c13
-13 46 -37 75 -52 63 -34 132 -84 218 -159 35 -32 76 -64 91 -72 25 -13 29
-12 60 14 41 36 87 52 148 52 84 0 238 66 286 123 43 51 25 141 -36 172 -34
18 -117 18 -180 1z"/>
</g>
</svg>
